<?xml version="1.0" encoding="UTF-8"?>
<!DOCTYPE svg PUBLIC "-//W3C//DTD SVG 1.1//EN" "http://www.w3.org/Graphics/SVG/1.1/DTD/svg11.dtd">
<!-- Creator: CorelDRAW -->
<svg xmlns="http://www.w3.org/2000/svg" xml:space="preserve" width="169.566mm" height="49.706mm" version="1.1" style="shape-rendering:geometricPrecision; text-rendering:geometricPrecision; image-rendering:optimizeQuality; fill-rule:evenodd; clip-rule:evenodd"
viewBox="0 0 349.89 102.57"
 xmlns:xlink="http://www.w3.org/1999/xlink"
 xmlns:xodm="http://www.corel.com/coreldraw/odm/2003">
 <defs>
  <style type="text/css">
   <![CDATA[
    .str0 {stroke:#7E71B1;stroke-width:0.41;stroke-miterlimit:22.9256}
    .fil1 {fill:none;fill-rule:nonzero}
    .fil5 {fill:#FEFEFE}
    .fil0 {fill:#86776F}
    .fil3 {fill:#7E71B1}
    .fil4 {fill:#FEFEFE;fill-rule:nonzero}
    .fil2 {fill:#7E71B1;fill-rule:nonzero}
   ]]>
  </style>
   <clipPath id="id0" style="clip-rule:nonzero">
    <path d="M298.06 45.95l10.17 0c1.21,0 2.23,0.45 3.04,1.26 0.81,0.86 1.26,1.81 1.26,3.04 0,1.16 -0.45,2.18 -1.26,2.99 -0.81,0.85 -1.83,1.26 -3.04,1.26l-10.17 0 0 -8.55z"/>
   </clipPath>
   <clipPath id="id1" style="clip-rule:nonzero">
    <path d="M332.45 70.23c0,4.09 -1.47,7.63 -4.35,10.57 -2.92,2.88 -6.48,4.35 -10.57,4.35l-2.68 0c-4.14,0 -7.79,-1.31 -10.93,-3.99 -3.14,-2.69 -5.11,-6.08 -5.87,-10.27l10.17 0c3.85,0 7.29,-0.97 10.43,-2.78 3.13,-1.88 5.61,-4.35 7.42,-7.49 1.88,-3.13 2.83,-6.58 2.83,-10.36 0,-3.85 -0.95,-7.29 -2.83,-10.43 -1.81,-3.09 -4.3,-5.61 -7.42,-7.44 -3.14,-1.86 -6.58,-2.78 -10.43,-2.78l-26.56 0 0 38.04c0,2.14 0.21,4.32 0.55,6.39 0.92,5.35 2.88,10.07 5.92,14.21 3.09,4.09 6.87,7.34 11.48,9.7 4.61,2.38 9.57,3.59 14.92,3.59l2.99 0c5.77,0 11.03,-1.42 15.73,-4.25 4.77,-2.78 8.55,-6.58 11.34,-11.33 2.83,-4.7 4.25,-9.96 4.25,-15.73l-16.4 0z"/>
   </clipPath>
   <clipPath id="id2" style="clip-rule:nonzero">
    <path d="M239.44 46l33.34 0c-0.05,-3.85 -0.1,-7.7 -0.16,-11.53 -0.05,-3.85 -0.05,-7.7 -0.1,-11.53 -0.36,0.55 -0.92,1.26 -1.67,2.18 -0.76,0.85 -1.76,1.66 -3.07,2.47 -1.57,0.92 -3.04,1.47 -4.35,1.73 -1.36,0.24 -2.33,0.29 -3.04,0.29l-29.49 0c-0.71,-0.1 -2.07,0.16 -4.06,0.62 -2.02,0.5 -3.99,1.66 -6.06,3.54 -1.16,1.26 -2.02,2.42 -2.59,3.59 -0.55,1.11 -0.85,1.86 -0.95,2.26 -0.41,1.33 -0.6,2.75 -0.6,4.26l-0.26 15.42c0,3.44 0.86,6.63 2.57,9.46 1.67,2.83 3.95,5.11 6.79,6.79 2.83,1.66 5.97,2.52 9.41,2.52l37.64 0 0 -16.39 -32.89 0c-1.97,0 -3.64,-0.71 -5.01,-2.07 -1.42,-1.42 -2.07,-3.09 -2.07,-5.01l0.21 -2.23c0,-1.78 0.6,-3.25 1.86,-4.51 1.28,-1.26 2.78,-1.86 4.56,-1.86z"/>
   </clipPath>
   <clipPath id="id3" style="clip-rule:nonzero">
    <path d="M211.07 11.54l-9.88 -9.86 -9.81 9.86 9.81 9.82 9.88 -9.82z"/>
   </clipPath>
   <clipPath id="id4" style="clip-rule:nonzero">
    <path d="M209.39 58.44l0 -35.16 -5.72 2.78c-3.3,1.57 -5.92,3.9 -7.79,6.94 -1.93,2.97 -2.83,6.32 -2.83,9.91l0 35.16 5.72 -2.78c3.28,-1.62 5.92,-3.9 7.79,-6.94 1.92,-3.02 2.83,-6.32 2.83,-9.91z"/>
   </clipPath>
   <clipPath id="id5" style="clip-rule:nonzero">
    <path d="M161.6 64.25c-2.59,0 -4.8,-0.6 -6.63,-1.86 -1.67,-1.26 -2.49,-2.68 -2.49,-4.25l0 -0.1c0,-1.21 0.31,-2.38 0.97,-3.49l7.89 -13.66 7.89 13.66c0.6,1.11 0.97,2.28 0.97,3.49 0,1.67 -0.86,3.09 -2.49,4.3 -1.66,1.16 -3.7,1.81 -6.11,1.92z"/>
   </clipPath>
   <clipPath id="id6" style="clip-rule:nonzero">
    <path d="M173.53 29.65c-1.11,-1.81 -2.73,-3.28 -4.9,-4.35 -2.23,-1.05 -4.64,-1.61 -7.29,-1.61 -2.68,0 -5.11,0.55 -7.29,1.61 -2.18,1.07 -3.83,2.54 -4.9,4.35l-13.81 23.98c-0.81,1.36 -1.21,2.83 -1.21,4.3 0,5.37 2.62,10.07 7.84,14.16 5.21,3.8 11.48,5.77 18.77,5.97 0.21,0 0.4,0 0.6,0 7.24,0 13.55,-1.92 19.13,-5.72 5.35,-4.09 8.08,-8.81 8.08,-14.21l0 -0.21c0,-1.47 -0.4,-2.94 -1.21,-4.3l-13.81 -23.98z"/>
   </clipPath>
   <clipPath id="id7" style="clip-rule:nonzero">
    <path d="M101.04 25.35l-19.13 0 0 -23.72 -5.77 2.73c-3.23,1.62 -5.87,3.95 -7.74,6.99 -1.92,2.99 -2.88,6.32 -2.88,9.91l0 72.44 5.77 -2.73c3.28,-1.62 5.87,-3.94 7.79,-6.98 1.92,-2.99 2.83,-6.32 2.83,-9.91l0 -32.34 16.39 0c0.67,0 1.57,0.1 2.8,0.21 1.16,0.16 2.42,0.5 3.78,1.07 1.36,0.6 2.69,1.47 4.01,2.68 0.81,0.76 1.42,1.52 1.97,2.28 1.52,2.38 2.28,4.96 2.28,7.68l0 22.41 16.39 0 0 -24.23c0,-5.27 -1.26,-10.01 -3.85,-14.31 -2.57,-4.3 -5.96,-7.75 -10.31,-10.33 -4.3,-2.54 -9.07,-3.85 -14.31,-3.85z"/>
   </clipPath>
   <clipPath id="id8" style="clip-rule:nonzero">
    <path d="M24.1 46l33.34 0c-0.05,-3.85 -0.1,-7.7 -0.16,-11.53 -0.05,-3.85 -0.05,-7.7 -0.1,-11.53 -0.36,0.55 -0.92,1.26 -1.67,2.18 -0.76,0.85 -1.76,1.66 -3.07,2.47 -1.57,0.92 -3.04,1.47 -4.35,1.73 -1.36,0.24 -2.33,0.29 -3.04,0.29l-29.49 0c-0.71,-0.1 -2.07,0.16 -4.06,0.62 -2.02,0.5 -3.99,1.66 -6.06,3.54 -1.16,1.26 -2.02,2.42 -2.59,3.59 -0.55,1.11 -0.85,1.86 -0.95,2.26 -0.41,1.33 -0.6,2.75 -0.6,4.26l-0.26 15.42c0,3.44 0.86,6.63 2.57,9.46 1.67,2.83 3.95,5.11 6.79,6.79 2.83,1.66 5.97,2.52 9.41,2.52l37.64 0 0 -16.39 -32.89 0c-1.97,0 -3.64,-0.71 -5.01,-2.07 -1.42,-1.42 -2.07,-3.09 -2.07,-5.01l0.21 -2.23c0,-1.78 0.6,-3.25 1.86,-4.51 1.28,-1.26 2.78,-1.86 4.56,-1.86z"/>
   </clipPath>
 </defs>
 <g id="Слой_x0020_1">
  <metadata id="CorelCorpID_0Corel-Layer"/>
  <g>
  </g>
  <g style="clip-path:url(#id0)">
   <g id="_1671631083280">
    <ellipse class="fil0" cx="161.49" cy="2.85" rx="3.3" ry="1.27"/>
   </g>
  </g>
  <path class="fil1" d="M298.06 45.95l10.17 0c1.21,0 2.23,0.45 3.04,1.26 0.81,0.86 1.26,1.81 1.26,3.04 0,1.16 -0.45,2.18 -1.26,2.99 -0.81,0.85 -1.83,1.26 -3.04,1.26l-10.17 0 0 -8.55z"/>
  <g>
  </g>
  <g style="clip-path:url(#id1)">
   <g id="_1671631082416">
    <ellipse class="fil0" cx="161.49" cy="2.85" rx="3.3" ry="1.27"/>
   </g>
  </g>
  <path class="fil1" d="M332.45 70.23c0,4.09 -1.47,7.63 -4.35,10.57 -2.92,2.88 -6.48,4.35 -10.57,4.35l-2.68 0c-4.14,0 -7.79,-1.31 -10.93,-3.99 -3.14,-2.69 -5.11,-6.08 -5.87,-10.27l10.17 0c3.85,0 7.29,-0.97 10.43,-2.78 3.13,-1.88 5.61,-4.35 7.42,-7.49 1.88,-3.13 2.83,-6.58 2.83,-10.36 0,-3.85 -0.95,-7.29 -2.83,-10.43 -1.81,-3.09 -4.3,-5.61 -7.42,-7.44 -3.14,-1.86 -6.58,-2.78 -10.43,-2.78l-26.56 0 0 38.04c0,2.14 0.21,4.32 0.55,6.39 0.92,5.35 2.88,10.07 5.92,14.21 3.09,4.09 6.87,7.34 11.48,9.7 4.61,2.38 9.57,3.59 14.92,3.59l2.99 0c5.77,0 11.03,-1.42 15.73,-4.25 4.77,-2.78 8.55,-6.58 11.34,-11.33 2.83,-4.7 4.25,-9.96 4.25,-15.73l-16.4 0z"/>
  <g>
  </g>
  <g style="clip-path:url(#id2)">
   <g id="_1671631081552">
    <ellipse class="fil0" cx="161.49" cy="2.85" rx="3.3" ry="1.27"/>
   </g>
  </g>
  <path class="fil1" d="M239.44 46l33.34 0c-0.05,-3.85 -0.1,-7.7 -0.16,-11.53 -0.05,-3.85 -0.05,-7.7 -0.1,-11.53 -0.36,0.55 -0.92,1.26 -1.67,2.18 -0.76,0.85 -1.76,1.66 -3.07,2.47 -1.57,0.92 -3.04,1.47 -4.35,1.73 -1.36,0.24 -2.33,0.29 -3.04,0.29l-29.49 0c-0.71,-0.1 -2.07,0.16 -4.06,0.62 -2.02,0.5 -3.99,1.66 -6.06,3.54 -1.16,1.26 -2.02,2.42 -2.59,3.59 -0.55,1.11 -0.85,1.86 -0.95,2.26 -0.41,1.33 -0.6,2.75 -0.6,4.26l-0.26 15.42c0,3.44 0.86,6.63 2.57,9.46 1.67,2.83 3.95,5.11 6.79,6.79 2.83,1.66 5.97,2.52 9.41,2.52l37.64 0 0 -16.39 -32.89 0c-1.97,0 -3.64,-0.71 -5.01,-2.07 -1.42,-1.42 -2.07,-3.09 -2.07,-5.01l0.21 -2.23c0,-1.78 0.6,-3.25 1.86,-4.51 1.28,-1.26 2.78,-1.86 4.56,-1.86z"/>
  <g>
  </g>
  <g style="clip-path:url(#id3)">
   <g id="_1671631083136">
    <ellipse class="fil0" cx="161.49" cy="2.85" rx="3.3" ry="1.27"/>
   </g>
  </g>
  <polygon class="fil1" points="211.07,11.54 201.19,1.68 191.38,11.54 201.19,21.36 "/>
  <g>
  </g>
  <g style="clip-path:url(#id4)">
   <g id="_1671631086208">
    <ellipse class="fil0" cx="161.49" cy="2.85" rx="3.3" ry="1.27"/>
   </g>
  </g>
  <path class="fil1" d="M209.39 58.44l0 -35.16 -5.72 2.78c-3.3,1.57 -5.92,3.9 -7.79,6.94 -1.93,2.97 -2.83,6.32 -2.83,9.91l0 35.16 5.72 -2.78c3.28,-1.62 5.92,-3.9 7.79,-6.94 1.92,-3.02 2.83,-6.32 2.83,-9.91z"/>
  <g>
  </g>
  <g style="clip-path:url(#id5)">
   <g id="_1671631086544">
    <ellipse class="fil0" cx="161.49" cy="2.85" rx="3.3" ry="1.27"/>
   </g>
  </g>
  <path class="fil1" d="M161.6 64.25c-2.59,0 -4.8,-0.6 -6.63,-1.86 -1.67,-1.26 -2.49,-2.68 -2.49,-4.25l0 -0.1c0,-1.21 0.31,-2.38 0.97,-3.49l7.89 -13.66 7.89 13.66c0.6,1.11 0.97,2.28 0.97,3.49 0,1.67 -0.86,3.09 -2.49,4.3 -1.66,1.16 -3.7,1.81 -6.11,1.92z"/>
  <g>
  </g>
  <g style="clip-path:url(#id6)">
   <g id="_1671631084432">
    <ellipse class="fil0" cx="161.49" cy="2.85" rx="3.3" ry="1.27"/>
   </g>
  </g>
  <path class="fil1" d="M173.53 29.65c-1.11,-1.81 -2.73,-3.28 -4.9,-4.35 -2.23,-1.05 -4.64,-1.61 -7.29,-1.61 -2.68,0 -5.11,0.55 -7.29,1.61 -2.18,1.07 -3.83,2.54 -4.9,4.35l-13.81 23.98c-0.81,1.36 -1.21,2.83 -1.21,4.3 0,5.37 2.62,10.07 7.84,14.16 5.21,3.8 11.48,5.77 18.77,5.97 0.21,0 0.4,0 0.6,0 7.24,0 13.55,-1.92 19.13,-5.72 5.35,-4.09 8.08,-8.81 8.08,-14.21l0 -0.21c0,-1.47 -0.4,-2.94 -1.21,-4.3l-13.81 -23.98z"/>
  <g>
  </g>
  <g style="clip-path:url(#id7)">
   <g id="_1671631083856">
    <ellipse class="fil0" cx="161.49" cy="2.85" rx="3.3" ry="1.27"/>
   </g>
  </g>
  <path class="fil1" d="M101.04 25.35l-19.13 0 0 -23.72 -5.77 2.73c-3.23,1.62 -5.87,3.95 -7.74,6.99 -1.92,2.99 -2.88,6.32 -2.88,9.91l0 72.44 5.77 -2.73c3.28,-1.62 5.87,-3.94 7.79,-6.98 1.92,-2.99 2.83,-6.32 2.83,-9.91l0 -32.34 16.39 0c0.67,0 1.57,0.1 2.8,0.21 1.16,0.16 2.42,0.5 3.78,1.07 1.36,0.6 2.69,1.47 4.01,2.68 0.81,0.76 1.42,1.52 1.97,2.28 1.52,2.38 2.28,4.96 2.28,7.68l0 22.41 16.39 0 0 -24.23c0,-5.27 -1.26,-10.01 -3.85,-14.31 -2.57,-4.3 -5.96,-7.75 -10.31,-10.33 -4.3,-2.54 -9.07,-3.85 -14.31,-3.85z"/>
  <g>
  </g>
  <g style="clip-path:url(#id8)">
   <g id="_1671631086496">
    <ellipse class="fil0" cx="161.49" cy="2.85" rx="3.3" ry="1.27"/>
   </g>
  </g>
  <path class="fil1" d="M24.1 46l33.34 0c-0.05,-3.85 -0.1,-7.7 -0.16,-11.53 -0.05,-3.85 -0.05,-7.7 -0.1,-11.53 -0.36,0.55 -0.92,1.26 -1.67,2.18 -0.76,0.85 -1.76,1.66 -3.07,2.47 -1.57,0.92 -3.04,1.47 -4.35,1.73 -1.36,0.24 -2.33,0.29 -3.04,0.29l-29.49 0c-0.71,-0.1 -2.07,0.16 -4.06,0.62 -2.02,0.5 -3.99,1.66 -6.06,3.54 -1.16,1.26 -2.02,2.42 -2.59,3.59 -0.55,1.11 -0.85,1.86 -0.95,2.26 -0.41,1.33 -0.6,2.75 -0.6,4.26l-0.26 15.42c0,3.44 0.86,6.63 2.57,9.46 1.67,2.83 3.95,5.11 6.79,6.79 2.83,1.66 5.97,2.52 9.41,2.52l37.64 0 0 -16.39 -32.89 0c-1.97,0 -3.64,-0.71 -5.01,-2.07 -1.42,-1.42 -2.07,-3.09 -2.07,-5.01l0.21 -2.23c0,-1.78 0.6,-3.25 1.86,-4.51 1.28,-1.26 2.78,-1.86 4.56,-1.86z"/>
  <path class="fil2" d="M308.23 46.98l-9.14 0 0 6.48 9.14 0c0.47,0 0.9,-0.08 1.28,-0.23 0.37,-0.15 0.71,-0.39 1.02,-0.71l0.01 -0.02c0.32,-0.32 0.56,-0.67 0.72,-1.05 0.15,-0.37 0.24,-0.77 0.24,-1.21 0,-0.47 -0.08,-0.88 -0.24,-1.25 -0.16,-0.37 -0.4,-0.72 -0.72,-1.06 -0.32,-0.32 -0.67,-0.56 -1.06,-0.72 -0.37,-0.15 -0.79,-0.24 -1.25,-0.24zm-10.17 -2.06l10.17 0c0.73,0 1.41,0.14 2.04,0.4 0.65,0.27 1.22,0.66 1.73,1.16l0.02 0.02c0.49,0.52 0.87,1.07 1.13,1.69 0.27,0.63 0.41,1.3 0.41,2.06 0,0.71 -0.14,1.38 -0.4,2.01 -0.27,0.64 -0.66,1.21 -1.16,1.71l-0 -0c-0.5,0.52 -1.07,0.91 -1.7,1.17 -0.64,0.26 -1.33,0.4 -2.07,0.4l-11.2 0 0 -10.61 1.03 0zm32.35 30.63c0.67,-1.63 1.01,-3.41 1.01,-5.32l0 -1.03 18.47 0 0 1.03c0,2.97 -0.37,5.82 -1.1,8.54 -0.73,2.72 -1.83,5.29 -3.3,7.72l-0 -0c-1.45,2.46 -3.15,4.66 -5.11,6.62 -1.94,1.94 -4.14,3.63 -6.59,5.06 -2.43,1.46 -5,2.56 -7.72,3.3 -2.72,0.73 -5.57,1.1 -8.54,1.1l-2.99 0c-2.75,0 -5.41,-0.31 -7.98,-0.93 -2.57,-0.62 -5.04,-1.55 -7.41,-2.77 -2.38,-1.22 -4.54,-2.67 -6.5,-4.33 -1.97,-1.67 -3.74,-3.56 -5.33,-5.66l-0.01 -0.01c-1.57,-2.14 -2.86,-4.42 -3.88,-6.87 -1.02,-2.44 -1.76,-5.03 -2.23,-7.78l0 -0c-0.18,-1.1 -0.33,-2.22 -0.43,-3.34 -0.09,-1.07 -0.14,-2.15 -0.14,-3.22l0 -39.07 27.59 0c2.01,0 3.92,0.24 5.74,0.73 1.83,0.49 3.56,1.22 5.21,2.2 1.63,0.96 3.1,2.09 4.39,3.39 1.3,1.31 2.44,2.78 3.39,4.41 0.99,1.65 1.73,3.38 2.23,5.21 0.5,1.83 0.75,3.74 0.75,5.75 0,1.97 -0.25,3.87 -0.75,5.7 -0.5,1.83 -1.24,3.56 -2.23,5.2l-0 -0c-0.95,1.65 -2.08,3.11 -3.37,4.41 -1.3,1.31 -2.77,2.45 -4.4,3.43l-0.02 0.01c-1.65,0.95 -3.38,1.68 -5.19,2.17 -1.82,0.49 -3.73,0.75 -5.75,0.75l-8.9 0c0.38,1.5 0.93,2.88 1.66,4.16 0.92,1.61 2.12,3.04 3.6,4.3l-0 0c1.47,1.25 3.06,2.19 4.77,2.81 1.7,0.62 3.53,0.93 5.49,0.93l2.68 0c1.92,0 3.7,-0.34 5.33,-1.01 1.64,-0.67 3.14,-1.69 4.51,-3.03 1.35,-1.37 2.36,-2.88 3.04,-4.52zm3.04 -4.29c-0.11,1.79 -0.49,3.48 -1.14,5.07 -0.78,1.89 -1.94,3.62 -3.48,5.19l-0.01 0.01c-1.55,1.54 -3.28,2.7 -5.18,3.48 -1.9,0.78 -3.94,1.17 -6.11,1.17l-2.68 0c-2.19,0 -4.25,-0.35 -6.19,-1.06 -1.93,-0.7 -3.74,-1.76 -5.4,-3.18l-0 0c-1.66,-1.43 -3.02,-3.04 -4.05,-4.84 -1.04,-1.8 -1.76,-3.81 -2.16,-6.03l-0.22 -1.21 11.4 0c1.84,0 3.57,-0.23 5.21,-0.67 1.64,-0.44 3.2,-1.1 4.68,-1.95l-0 -0c1.49,-0.9 2.83,-1.94 4.01,-3.12 1.18,-1.19 2.2,-2.52 3.06,-4.01l0.01 -0.02c0.9,-1.49 1.57,-3.04 2.01,-4.67 0.45,-1.63 0.67,-3.35 0.67,-5.16 0,-1.84 -0.22,-3.58 -0.67,-5.21 -0.45,-1.64 -1.12,-3.2 -2.01,-4.69l-0 -0.01c-0.87,-1.48 -1.9,-2.82 -3.08,-4.01 -1.17,-1.18 -2.5,-2.2 -3.97,-3.07l-0 0c-1.49,-0.89 -3.05,-1.54 -4.69,-1.98 -1.64,-0.44 -3.38,-0.65 -5.22,-0.65l-25.53 0 0 37.01c0,1.01 0.05,2.03 0.14,3.05 0.09,1.09 0.23,2.15 0.4,3.17 0.45,2.6 1.14,5.04 2.1,7.34 0.95,2.29 2.16,4.43 3.63,6.43 1.5,1.99 3.17,3.77 5.02,5.33 1.85,1.57 3.89,2.93 6.11,4.08l0 0c2.23,1.15 4.55,2.03 6.95,2.6 2.4,0.58 4.89,0.87 7.5,0.87l2.99 0c2.8,0 5.47,-0.34 8.01,-1.03 2.53,-0.68 4.93,-1.71 7.19,-3.07l0.02 -0.01c2.3,-1.34 4.36,-2.93 6.18,-4.75 1.84,-1.83 3.43,-3.91 4.79,-6.21l0 -0.01c1.36,-2.26 2.39,-4.66 3.07,-7.19 0.6,-2.22 0.94,-4.55 1.01,-6.98l-14.35 0z"/>
  <path class="fil2" d="M272.78 47.03l-33.34 0c-0.76,0 -1.45,0.13 -2.08,0.38 -0.63,0.26 -1.21,0.65 -1.75,1.18l0 0c-0.54,0.54 -0.93,1.11 -1.18,1.72 -0.25,0.62 -0.38,1.3 -0.38,2.06 0,0.63 -0.15,1.57 -0.21,2.23 0,0.82 0.14,1.59 0.43,2.3 0.29,0.71 0.73,1.37 1.34,1.98 0.59,0.59 1.24,1.04 1.95,1.33 0.7,0.29 1.48,0.44 2.33,0.44l33.93 0 0 18.45 -38.67 0c-1.8,0 -3.52,-0.23 -5.17,-0.67 -1.66,-0.45 -3.25,-1.11 -4.76,-2l-0 0c-1.49,-0.88 -2.84,-1.93 -4.03,-3.12 -1.19,-1.19 -2.23,-2.53 -3.11,-4.02 -0.9,-1.5 -1.58,-3.09 -2.04,-4.76 -0.45,-1.67 -0.68,-3.42 -0.68,-5.23l0 -0.02 0.26 -15.4 -0 0c0,-0.8 0.05,-1.58 0.16,-2.34 0.11,-0.77 0.27,-1.51 0.49,-2.23 0.07,-0.27 0.2,-0.62 0.38,-1.05 0.14,-0.34 0.35,-0.79 0.63,-1.35 0.31,-0.65 0.7,-1.28 1.17,-1.92 0.45,-0.62 0.99,-1.26 1.59,-1.92l0.03 -0.03 0.03 -0.03c1.08,-0.99 2.15,-1.79 3.22,-2.41 1.09,-0.64 2.18,-1.09 3.28,-1.36l0.01 -0c1,-0.24 1.86,-0.42 2.58,-0.54 0.73,-0.12 1.32,-0.16 1.77,-0.11l29.44 0c0.33,0 0.72,-0.01 1.19,-0.05 0.47,-0.04 1.02,-0.11 1.67,-0.23 0.62,-0.12 1.27,-0.31 1.94,-0.58 0.66,-0.26 1.35,-0.6 2.08,-1.02 0.6,-0.37 1.14,-0.75 1.62,-1.13 0.46,-0.37 0.86,-0.75 1.21,-1.13 0.35,-0.42 0.66,-0.8 0.94,-1.16 0.25,-0.33 0.46,-0.62 0.64,-0.89l1.84 -2.81 0.05 3.37c0.03,1.9 0.04,3.83 0.05,5.75 0.01,1.92 0.03,3.84 0.05,5.78l0.17 12.58 -1.04 0zm-33.34 -2.06l32.3 0 -0.14 -10.49c-0.03,-1.92 -0.04,-3.86 -0.05,-5.8l-0.02 -2.79c-0.39,0.43 -0.85,0.85 -1.36,1.26 -0.54,0.43 -1.15,0.86 -1.85,1.29l-0.02 0.02c-0.8,0.47 -1.59,0.85 -2.35,1.15 -0.82,0.32 -1.59,0.55 -2.32,0.7l-0.02 0c-0.71,0.13 -1.33,0.2 -1.86,0.25 -0.54,0.05 -0.98,0.06 -1.36,0.06l-29.56 0 -0.08 -0.01c-0.25,-0.04 -0.66,0 -1.24,0.09 -0.64,0.1 -1.46,0.28 -2.44,0.51 -0.91,0.23 -1.81,0.6 -2.72,1.14 -0.93,0.54 -1.87,1.25 -2.84,2.13 -0.54,0.59 -1.01,1.15 -1.41,1.7 -0.4,0.55 -0.73,1.08 -0.98,1.61l-0.01 0.01c-0.22,0.45 -0.41,0.87 -0.57,1.24 -0.16,0.39 -0.26,0.66 -0.3,0.82l-0.01 0.05c-0.19,0.61 -0.33,1.25 -0.42,1.9 -0.09,0.65 -0.13,1.34 -0.13,2.06l-0 0.02 -0.26 15.4 0 0c0,1.63 0.2,3.2 0.61,4.69 0.4,1.49 1.01,2.91 1.81,4.24l0 0.01c0.79,1.34 1.73,2.55 2.8,3.62 1.07,1.07 2.28,2.01 3.62,2.8 1.34,0.78 2.75,1.38 4.25,1.78 1.47,0.39 3.02,0.6 4.64,0.6l36.61 0 0 -14.32 -31.86 0c-1.11,0 -2.15,-0.2 -3.11,-0.6 -0.97,-0.4 -1.84,-0.99 -2.62,-1.77l-0 -0c-0.81,-0.81 -1.4,-1.69 -1.79,-2.65 -0.39,-0.96 -0.58,-1.99 -0.58,-3.08 0,-0.63 0.15,-1.57 0.21,-2.23 0,-1.02 0.18,-1.96 0.54,-2.83 0.36,-0.88 0.9,-1.67 1.63,-2.4l0.01 -0c0.74,-0.73 1.54,-1.27 2.43,-1.63 0.88,-0.36 1.83,-0.54 2.85,-0.54z"/>
  <path class="fil2" d="M201.92 0.95l10.61 10.59 -11.34 11.28 -11.26 -11.28 11.26 -11.32 0.73 0.73zm7.69 10.59l-8.42 -8.4 -8.36 8.4 8.36 8.37 8.42 -8.37zm0.81 11.74l0 35.16c0,1.89 -0.24,3.7 -0.74,5.45 -0.5,1.75 -1.24,3.42 -2.26,5.02 -0.99,1.6 -2.18,3 -3.55,4.22 -1.38,1.22 -2.93,2.24 -4.65,3.09l-7.2 3.5 0 -36.8c0,-1.91 0.24,-3.77 0.75,-5.54 0.49,-1.72 1.23,-3.36 2.23,-4.91 0.99,-1.61 2.17,-3.03 3.54,-4.25 1.38,-1.23 2.94,-2.26 4.68,-3.09l7.19 -3.5 0 1.65zm-2.06 35.16l0 -33.51 -4.24 2.06c-1.56,0.74 -2.97,1.67 -4.19,2.76 -1.23,1.09 -2.28,2.36 -3.16,3.78l-0.02 0.02c-0.89,1.37 -1.55,2.84 -1.99,4.38 -0.45,1.58 -0.67,3.25 -0.67,4.98l0 33.51 4.23 -2.06c1.56,-0.77 2.97,-1.7 4.2,-2.79 1.23,-1.08 2.29,-2.34 3.17,-3.77l0.01 -0.02c0.91,-1.43 1.57,-2.92 2.01,-4.47 0.44,-1.56 0.66,-3.19 0.66,-4.89z"/>
  <path class="fil2" d="M158.27 62.8c1.01,0.28 2.12,0.42 3.33,0.42l0 0c1.09,-0.05 2.09,-0.22 3.01,-0.51 0.92,-0.29 1.75,-0.69 2.49,-1.2 0.7,-0.52 1.23,-1.08 1.58,-1.67 0.32,-0.55 0.49,-1.15 0.49,-1.8 0,-0.5 -0.07,-0.99 -0.2,-1.46 -0.14,-0.52 -0.36,-1.02 -0.62,-1.51l-7 -12.12 -7 12.12c-0.28,0.47 -0.49,0.95 -0.62,1.44 -0.14,0.49 -0.2,1 -0.2,1.53l0 0.1c0,0.6 0.16,1.18 0.47,1.72 0.34,0.58 0.86,1.14 1.57,1.68 0.82,0.56 1.73,0.98 2.72,1.26zm3.33 2.48c-1.38,0 -2.67,-0.16 -3.87,-0.5 -1.22,-0.34 -2.33,-0.85 -3.34,-1.55l-0.03 -0.02c-0.95,-0.72 -1.66,-1.49 -2.15,-2.31 -0.51,-0.87 -0.76,-1.79 -0.76,-2.76l0 -0.1c0,-0.7 0.09,-1.39 0.28,-2.08 0.18,-0.67 0.46,-1.31 0.83,-1.94l8.78 -15.19c2.83,4.89 6.31,10.29 8.79,15.22 0.35,0.64 0.63,1.3 0.81,1.97 0.18,0.66 0.28,1.33 0.28,2.01 0,1.02 -0.27,1.97 -0.78,2.84 -0.49,0.84 -1.2,1.59 -2.13,2.28l-0.02 0.02c-0.92,0.65 -1.95,1.15 -3.07,1.5 -1.09,0.34 -2.29,0.55 -3.59,0.6l-0.04 0zm10.54 -38.88c0.91,0.8 1.66,1.71 2.27,2.71l13.82 24 0 -0c0.45,0.75 0.78,1.54 1.01,2.34 0.23,0.82 0.35,1.66 0.35,2.49l0 0.21c0,2.88 -0.73,5.58 -2.17,8.11 -1.42,2.49 -3.53,4.79 -6.32,6.92l-0.04 0.03c-2.88,1.96 -5.95,3.43 -9.23,4.42 -3.28,0.98 -6.77,1.48 -10.48,1.48l-0.6 0 -0.03 -0c-3.75,-0.11 -7.23,-0.67 -10.44,-1.68 -3.23,-1.02 -6.2,-2.52 -8.9,-4.49l-0.03 -0.02c-2.71,-2.13 -4.76,-4.43 -6.14,-6.91 -1.4,-2.52 -2.1,-5.2 -2.1,-8.06 0,-0.83 0.11,-1.66 0.35,-2.49 0.22,-0.8 0.56,-1.58 1.01,-2.34l0 0 13.81 -23.97 0 -0.01c0.59,-0.99 1.34,-1.9 2.24,-2.7 0.89,-0.79 1.93,-1.48 3.09,-2.05l0.01 -0c1.16,-0.56 2.4,-0.99 3.71,-1.28 1.29,-0.28 2.64,-0.43 4.03,-0.43 1.38,0 2.72,0.15 4.02,0.44 1.29,0.29 2.53,0.71 3.71,1.27l0.02 0.01c1.16,0.57 2.18,1.25 3.06,2.03zm0.51 3.78c-0.51,-0.83 -1.13,-1.58 -1.87,-2.24 -0.74,-0.65 -1.6,-1.23 -2.59,-1.72 -1.05,-0.5 -2.14,-0.87 -3.27,-1.13 -1.13,-0.25 -2.32,-0.38 -3.58,-0.38 -1.27,0 -2.46,0.13 -3.58,0.37 -1.14,0.25 -2.22,0.63 -3.25,1.12 -1.01,0.5 -1.89,1.08 -2.64,1.74 -0.73,0.65 -1.35,1.39 -1.83,2.21l-0 -0 -13.81 23.97 -0 0.01c-0.36,0.6 -0.62,1.22 -0.8,1.85 -0.18,0.63 -0.27,1.28 -0.27,1.93 0,2.51 0.61,4.86 1.83,7.06 1.24,2.23 3.11,4.33 5.61,6.29l-0 0c2.5,1.82 5.26,3.2 8.28,4.16 3.04,0.96 6.32,1.49 9.85,1.6l0 -0 0.6 0c3.52,0 6.81,-0.46 9.89,-1.39 3.07,-0.92 5.95,-2.3 8.64,-4.13 2.55,-1.96 4.48,-4.05 5.75,-6.28 1.26,-2.21 1.9,-4.57 1.9,-7.09l0 -0.21c0,-0.65 -0.09,-1.3 -0.27,-1.93 -0.18,-0.63 -0.44,-1.25 -0.8,-1.85l-0 -0.01 -13.8 -23.96z"/>
  <path class="fil2" d="M82.94 24.32l18.1 0c2.7,0 5.28,0.34 7.74,1 2.49,0.67 4.86,1.67 7.1,3 2.25,1.33 4.25,2.89 6.03,4.68 1.77,1.78 3.31,3.78 4.64,6 1.35,2.23 2.35,4.58 3.01,7.06 0.66,2.47 0.99,5.07 0.99,7.79l0 25.26 -18.45 0 0 -23.44c0,-1.27 -0.18,-2.5 -0.53,-3.69 -0.35,-1.17 -0.87,-2.3 -1.55,-3.39 -0.27,-0.37 -0.54,-0.73 -0.84,-1.08 -0.31,-0.36 -0.63,-0.71 -0.99,-1.05l-0 0c-0.62,-0.57 -1.23,-1.05 -1.85,-1.46 -0.61,-0.41 -1.24,-0.75 -1.87,-1.03 -0.63,-0.26 -1.23,-0.47 -1.8,-0.63 -0.58,-0.16 -1.13,-0.28 -1.65,-0.35 -0.21,-0.02 -0.4,-0.04 -0.91,-0.08 -0.73,-0.07 -1.31,-0.12 -1.8,-0.12l-15.35 0 0 31.31c0,1.9 -0.25,3.75 -0.75,5.51 -0.5,1.73 -1.24,3.39 -2.25,4.96 -1.01,1.59 -2.19,3 -3.56,4.23 -1.37,1.23 -2.91,2.26 -4.64,3.11 -2.37,1.19 -4.85,2.29 -7.25,3.43l0 -74.06c0,-1.89 0.26,-3.71 0.77,-5.47 0.51,-1.75 1.27,-3.42 2.28,-5 0.97,-1.58 2.14,-2.98 3.49,-4.2 1.38,-1.25 2.94,-2.3 4.65,-3.16l0.02 -0.01 7.24 -3.42 0 24.32z"/>
  <path class="fil2" d="M101.04 26.38l-20.16 0 0 -23.13 -4.3 2.03c-1.54,0.78 -2.94,1.72 -4.17,2.83 -1.2,1.09 -2.25,2.34 -3.13,3.76l-0.01 0.02c-0.91,1.41 -1.59,2.9 -2.04,4.46 -0.45,1.55 -0.68,3.19 -0.68,4.9l0 70.81 4.3 -2.03c1.55,-0.77 2.94,-1.7 4.16,-2.79 1.22,-1.1 2.29,-2.36 3.2,-3.8l0 -0.01c0.89,-1.39 1.56,-2.87 2,-4.41 0.45,-1.57 0.67,-3.23 0.67,-4.94l0 -33.37 17.42 0c0.5,0 1.16,0.06 1.99,0.14l0.9 0.08 0.05 0.01c0.64,0.09 1.3,0.22 1.98,0.42 0.66,0.19 1.35,0.43 2.05,0.72l0.02 0.01c0.73,0.32 1.46,0.72 2.18,1.2 0.71,0.47 1.42,1.02 2.11,1.67l0 0.01c0.45,0.42 0.83,0.83 1.17,1.22 0.35,0.41 0.65,0.81 0.94,1.2l0.03 0.05c0.81,1.27 1.42,2.6 1.83,3.97 0.41,1.38 0.62,2.81 0.62,4.27l0 21.38 14.32 0 0 -23.19c0,-2.55 -0.3,-4.96 -0.92,-7.25 -0.61,-2.29 -1.54,-4.46 -2.78,-6.53l0 -0c-1.24,-2.08 -2.68,-3.95 -4.33,-5.61 -1.65,-1.66 -3.51,-3.11 -5.62,-4.35 -2.08,-1.23 -4.27,-2.16 -6.58,-2.78 -2.28,-0.61 -4.69,-0.93 -7.21,-0.93z"/>
  <path class="fil2" d="M57.44 47.03l-33.34 0c-0.76,0 -1.45,0.13 -2.08,0.38 -0.63,0.26 -1.21,0.65 -1.75,1.18l0 0c-0.54,0.54 -0.93,1.11 -1.18,1.72 -0.25,0.62 -0.38,1.3 -0.38,2.06 0,0.63 -0.15,1.57 -0.21,2.23 0,0.82 0.14,1.59 0.43,2.3 0.29,0.71 0.73,1.37 1.34,1.98 0.59,0.59 1.24,1.04 1.95,1.33 0.7,0.29 1.48,0.44 2.33,0.44l33.93 0 0 18.45 -38.67 0c-1.8,0 -3.52,-0.23 -5.17,-0.67 -1.66,-0.45 -3.25,-1.11 -4.76,-2l-0 0c-1.49,-0.88 -2.84,-1.93 -4.03,-3.12 -1.19,-1.19 -2.23,-2.53 -3.11,-4.02 -0.9,-1.5 -1.58,-3.09 -2.04,-4.76 -0.45,-1.67 -0.68,-3.42 -0.68,-5.23l0 -0.02 0.26 -15.4 -0 0c0,-0.8 0.05,-1.58 0.16,-2.34 0.11,-0.77 0.27,-1.51 0.49,-2.23 0.07,-0.27 0.2,-0.62 0.38,-1.05 0.14,-0.34 0.35,-0.79 0.63,-1.35 0.31,-0.65 0.7,-1.28 1.17,-1.92 0.45,-0.62 0.99,-1.26 1.59,-1.92l0.03 -0.03 0.03 -0.03c1.08,-0.99 2.15,-1.79 3.22,-2.41 1.09,-0.64 2.18,-1.09 3.28,-1.36l0.01 -0c1,-0.24 1.86,-0.42 2.58,-0.54 0.73,-0.12 1.32,-0.16 1.77,-0.11l29.44 0c0.33,0 0.73,-0.01 1.19,-0.05 0.47,-0.04 1.02,-0.11 1.67,-0.23 0.62,-0.12 1.26,-0.31 1.94,-0.58 0.66,-0.26 1.35,-0.6 2.08,-1.02 0.6,-0.37 1.14,-0.75 1.61,-1.13 0.46,-0.37 0.86,-0.75 1.21,-1.13 0.35,-0.42 0.66,-0.8 0.94,-1.16 0.25,-0.33 0.46,-0.62 0.64,-0.89l1.84 -2.81 0.05 3.36c0.03,1.91 0.04,3.84 0.05,5.78 0.01,1.91 0.03,3.83 0.05,5.76l0.17 12.58 -1.04 0z"/>
  <path class="fil1 str0" d="M24.1 44.97l32.3 0 -0.14 -10.49c-0.03,-1.91 -0.04,-3.85 -0.05,-5.78l-0.02 -2.81c-0.39,0.43 -0.85,0.85 -1.36,1.26 -0.54,0.43 -1.15,0.86 -1.85,1.29l-0.02 0.02c-0.8,0.47 -1.59,0.85 -2.35,1.15 -0.82,0.32 -1.59,0.55 -2.32,0.7l-0.02 0c-0.71,0.13 -1.33,0.2 -1.86,0.25 -0.54,0.05 -0.98,0.06 -1.36,0.06l-29.56 0 -0.08 -0.01c-0.25,-0.04 -0.66,0 -1.24,0.09 -0.64,0.1 -1.46,0.28 -2.44,0.51 -0.91,0.23 -1.81,0.6 -2.72,1.14 -0.93,0.54 -1.87,1.25 -2.84,2.13 -0.54,0.59 -1.01,1.15 -1.41,1.7 -0.4,0.55 -0.73,1.08 -0.98,1.61l-0.01 0.01c-0.22,0.45 -0.41,0.87 -0.57,1.24 -0.16,0.39 -0.26,0.66 -0.3,0.82l-0.01 0.05c-0.19,0.61 -0.33,1.25 -0.42,1.9 -0.09,0.65 -0.13,1.34 -0.13,2.06l-0 0.02 -0.26 15.4 0 0c0,1.63 0.2,3.2 0.61,4.69 0.4,1.49 1.01,2.91 1.81,4.24l0 0.01c0.79,1.34 1.73,2.55 2.8,3.62 1.08,1.08 2.28,2.01 3.62,2.8 1.34,0.78 2.75,1.38 4.25,1.78 1.47,0.39 3.02,0.6 4.64,0.6l36.61 0 0 -14.32 -31.86 0c-1.11,0 -2.15,-0.2 -3.11,-0.6 -0.97,-0.4 -1.84,-0.99 -2.62,-1.77l-0 -0c-0.81,-0.81 -1.4,-1.69 -1.79,-2.65 -0.39,-0.96 -0.58,-1.99 -0.58,-3.08 0,-0.64 0.15,-1.57 0.21,-2.23 0,-1.02 0.18,-1.96 0.54,-2.83 0.36,-0.88 0.9,-1.67 1.63,-2.4l0.01 -0c0.74,-0.73 1.54,-1.27 2.43,-1.63 0.88,-0.36 1.83,-0.54 2.85,-0.54z"/>
  <g id="_1671631088272">
   <path class="fil3" d="M107.29 13.11l1.32 0.01 -0 0.84c-0.14,0.04 -1.2,0.23 -1.29,0.22l-0.02 -1.06zm-1.51 0l1.17 -0 0.03 1.12 -1.11 0.17 -0.09 -1.3zm3.17 0l0.93 -0c0.01,0.1 -0.02,0.3 -0.06,0.38 -0.1,0.22 -0.65,0.35 -0.88,0.39l0.01 -0.77zm-6.38 -0l1.26 -0 0.17 1.59c-0.27,0.02 -1,0.19 -1.19,0.17l-0.23 -1.76zm-0.35 -0l0.25 1.82c-0.08,0.04 -1,0.17 -1.14,0.18 -0.04,-0.07 -0.35,-1.83 -0.35,-2l1.25 -0zm1.95 0l1.26 0 0.09 1.35 -1.2 0.18 -0.15 -1.53zm-3.54 0.01l0.35 2.04 -1.09 0.16 -0.46 -2.22c0.2,0 1.08,-0.03 1.19,0.01zm-1.54 -0.01l0.47 2.27 -1.21 0.18 -0.58 -2.45 1.32 0.01zm-1.67 -0c0.06,0.18 0.59,2.44 0.59,2.51l-1.06 0.16c-0.04,-0.07 -0.71,-2.55 -0.72,-2.66l1.19 0zm-1.85 2.87l-0.91 -2.88 1.22 -0 0.72 2.71c-0.09,0.05 -0.88,0.15 -1.03,0.16zm-0.34 0.06c-0.2,0.03 -0.42,0.07 -0.62,0.08 -0.28,0.02 -0.38,-0.05 -0.5,-0.2 -0.27,-0.34 -0.73,-1.4 -0.92,-1.85 -0.06,-0.14 -0.41,-0.88 -0.42,-0.96l1.53 -0c0.1,0.32 0.93,2.85 0.92,2.93zm12.01 -5.41l1.38 0.01 0 2.12c-0.16,0.04 -1.09,0.01 -1.33,0.01l-0.05 -2.14zm-1.63 0l1.3 0 0.05 2.14 -1.2 -0.01 -0.15 -2.14zm-3.37 0c0.21,-0 1.24,-0.02 1.35,0.01l0.22 2.13 -1.28 -0 -0.29 -2.14zm-3.3 -0l1.28 0.01 0.37 2.13 -1.2 0 -0.44 -2.14zm6.34 0.01l0.15 2.13 -1.28 -0 -0.23 -2.14 1.35 0.01zm-3.08 2.13l-1.26 -0 -0.37 -2.14 1.34 0 0.29 2.14zm-4.84 -0l-1.2 -0c-0.03,-0.05 -0.55,-1.97 -0.58,-2.14l1.26 0c0.03,0.05 0.49,1.95 0.51,2.14zm0.35 -0l-0.51 -2.14 1.4 0 0.44 2.14 -1.33 -0zm-3.14 0l-0.68 -2.14 1.35 0 0.57 2.14 -1.24 0zm14.4 -2.14l1.19 0.01 -0.21 2.12c-0.08,0.02 -0.9,0.02 -0.98,0l0 -2.13zm-17.28 -0l1.85 0 0.67 2.14 -1.58 -0 -0.94 -2.14zm15.51 -2.47l1.44 0.01 0 2.12c-0.08,0.02 -1.26,0.02 -1.39,0.01l-0.05 -2.14zm-1.76 0l1.42 0.01 0.05 2.13 -1.31 0 -0.15 -2.14zm-1.76 0l1.43 0 0.15 2.14 -1.36 -0 -0.22 -2.14zm5.29 0l1.43 -0 -0.2 2.13c-0.15,0.04 -1,0.01 -1.23,0.01l0 -2.14zm-10.88 0l0.44 2.14 -1.41 -0 -0.51 -2.14 1.48 0zm-1.32 2.14l-1.28 -0 -0.57 -2.14 1.35 0 0.51 2.14zm-3.35 0l-1.89 -0 -0.95 -2.14 2.16 0 0.68 2.14zm8.77 -0l-0.3 -2.14 1.44 -0 0.22 2.14 -1.36 -0zm-1.69 -0l-0.37 -2.14 1.43 -0 0.3 2.14 -0.09 0 -1.16 0 -0.11 -0.01zm-2.07 -2.14l1.36 -0 0.37 2.14 -1.29 -0 -0.44 -2.14zm-5.33 -0l1.47 0 0.57 2.14 -1.36 -0 -0.68 -2.14zm15.86 -1.45c1.69,0.1 1.57,-0.05 1.52,0.49 -0.02,0.21 -0.04,0.42 -0.06,0.62l-1.46 0 0 -1.12zm-3.65 -0.18c0.2,0 1.4,0.05 1.5,0.09l0.03 1.21 -1.44 0 -0.09 -1.3zm1.83 0.09l1.48 0.08 0 1.13 -1.45 0 -0.03 -1.21zm-3.66 -0.18c0.23,0 1.33,0.04 1.5,0.08l0.09 1.31 -1.44 -0 -0.14 -1.38zm-0.19 1.39l-1.45 -0.01 -0.2 -1.47 1.5 0.08 0.15 1.4zm-3.5 -1.58l1.51 0.08 0.21 1.5 -1.44 0 -0.27 -1.58zm-0.35 -0.02l0.28 1.59 -1.36 -0c-0.03,-0.05 -0.33,-1.51 -0.35,-1.66l1.43 0.07zm-2.92 1.59l-0.41 -1.76 1.56 0.08 0.34 1.68 -1.49 -0zm-2.19 -1.84l1.43 0.08 0.42 1.77 -1.36 -0 -0.49 -1.84zm-1.34 1.85l-0.61 -1.94c0.21,0.01 1.51,0.05 1.59,0.09 0.04,0.05 0.46,1.65 0.51,1.85l-1.48 -0zm-2.56 -0l-0.93 -2.09 2.52 0.13 0.62 1.95 -2.21 -0zm-4.17 -5.9c0.02,-0.1 0.11,-0.34 0.16,-0.4 0.36,0.12 1.09,0.53 1.43,0.72 0.23,0.13 0.44,0.28 0.65,0.42 0.19,0.13 0.74,0.54 0.91,0.7 0.05,0.05 0.08,0.06 0.14,0.12l0.28 0.26c0.25,0.26 0.95,0.95 1.23,1.17l0.28 0.25 -2.15 -0.11c-0.4,-0.73 -0.59,-1.56 -1.13,-2.09 -0.27,-0.27 -0.93,-0.65 -1.27,-0.81 -0.15,-0.07 -0.37,-0.18 -0.53,-0.23zm3.9 6.93c0.34,0.78 0.71,1.55 1.04,2.33 0.33,0.79 0.7,1.56 1.04,2.34 0.27,0.63 0.75,1.72 1.05,2.31 0.52,1.03 1,1.01 1.94,0.87 0.41,-0.06 0.45,-0.08 0.18,0.27 -0.67,0.87 -1.33,1.78 -2,2.64 -0.11,0.15 -0.25,0.3 -0.31,0.53 -0.06,0.26 0.01,0.48 0.13,0.67 0.29,0.46 0.81,0.37 1.3,0.37l11.81 0c1.11,0 2.26,-0.03 3.36,0 0.02,-0.32 -0.19,-0.56 -0.37,-0.68 -0.24,-0.15 -0.61,-0.11 -0.92,-0.11l-6.22 0c-0.05,0 -8.22,0.02 -8.28,-0.01l-0.04 -0.04c0.01,-0.07 0.16,-0.24 0.21,-0.31l1.99 -2.63c0.23,-0.32 0.25,-0.26 0.7,-0.33l7.11 -1.13c0.78,-0.12 0.67,-0.19 1.01,-0.53 0.31,-0.31 0.67,-0.3 1.17,-0.37 0.82,-0.13 1.86,-0.28 2.64,-0.44 0.56,-0.11 1.16,-0.23 1.52,-0.55 0.18,-0.16 0.28,-0.39 0.32,-0.71 0.04,-0.3 0.06,-0.62 0.09,-0.93l0.46 -4.69c0.06,-0.57 0.24,-1.24 -0.38,-1.53 -0.22,-0.11 -0.63,-0.1 -0.91,-0.11 -5.22,-0.24 -10.46,-0.54 -15.68,-0.78 -0.33,-0.02 -0.66,-0.03 -0.99,-0.05 -0.54,-0.03 -0.47,0.04 -0.82,-0.21 -0.55,-0.38 -0.81,-0.6 -1.28,-1.04l-0.65 -0.64c-0.09,-0.09 -0.18,-0.16 -0.26,-0.25l-0.28 -0.25c-0.33,-0.26 -0.44,-0.37 -0.85,-0.67 -1.48,-1.08 -4.09,-2.19 -6.03,-2.21 -0.13,0.51 -0.67,1.16 -0.28,1.56 0.14,0.15 0.72,0.2 1.01,0.26 0.94,0.19 1.73,0.48 2.56,0.82 0.45,0.19 1.26,0.62 1.53,1.01 0.13,0.19 0.69,1.45 0.81,1.71 0.18,0.38 0.35,0.77 0.52,1.16 0.34,0.78 0.71,1.56 1.04,2.34z"/>
   <path class="fil3" d="M105.26 22.44c0.48,-0.09 0.87,0.27 0.94,0.67 0.08,0.49 -0.26,0.88 -0.67,0.95 -0.48,0.09 -0.88,-0.26 -0.95,-0.66 -0.09,-0.49 0.26,-0.88 0.67,-0.95zm-1.49 0.99c0.09,0.84 0.84,1.55 1.8,1.45 0.84,-0.09 1.55,-0.84 1.45,-1.8 -0.09,-0.84 -0.84,-1.55 -1.8,-1.45 -0.84,0.09 -1.56,0.85 -1.45,1.8z"/>
   <path class="fil3" d="M96.53 22.44c0.48,-0.08 0.87,0.29 0.94,0.68 0.08,0.49 -0.27,0.87 -0.67,0.94 -0.48,0.09 -0.88,-0.27 -0.94,-0.67 -0.08,-0.5 0.28,-0.88 0.68,-0.95zm-1.5 0.95c0.07,0.85 0.82,1.56 1.76,1.49 0.86,-0.07 1.57,-0.82 1.49,-1.77 -0.07,-0.86 -0.82,-1.57 -1.77,-1.49 -0.85,0.07 -1.56,0.83 -1.48,1.77z"/>
  </g>
  <path class="fil4" d="M191.56 89.95c0,0.55 -0.11,0.91 -0.33,1.1 -0.22,0.18 -0.61,0.27 -1.18,0.27l-3.77 0c-0.62,0 -1.03,-0.1 -1.23,-0.31 -0.2,-0.21 -0.29,-0.61 -0.29,-1.23l1.26 -0.23 0 0.69 4.27 0 0 -1.33 -3.76 0c-0.57,0 -0.96,-0.09 -1.17,-0.26 -0.24,-0.19 -0.36,-0.56 -0.36,-1.11l0 -0.64c0,-0.55 0.12,-0.92 0.36,-1.11 0.21,-0.17 0.6,-0.26 1.17,-0.26l3.44 0c0.59,0 0.99,0.09 1.2,0.27 0.21,0.18 0.32,0.56 0.32,1.12l-1.22 0.26 0 -0.62 -3.99 0 0 1.22 3.77 0c0.57,0 0.96,0.09 1.18,0.27 0.22,0.18 0.33,0.55 0.33,1.1l0 0.8zm9.31 0c0,0.55 -0.11,0.91 -0.34,1.1 -0.22,0.18 -0.62,0.27 -1.19,0.27l-3.84 0c-0.57,0 -0.96,-0.09 -1.18,-0.27 -0.22,-0.18 -0.33,-0.55 -0.33,-1.1l0 -4.43 1.41 0 0 4.72 4.03 0 0 -4.72 1.43 0 0 4.43zm9.16 -2.02c0,0.75 -0.45,1.12 -1.36,1.12l-3.83 0 0 2.26 -1.4 0 0 -5.8 5.23 0c0.45,0 0.78,0.07 0.99,0.22 0.25,0.17 0.37,0.48 0.37,0.91l0 1.29zm-1.32 -0.34l0 -0.6c0,-0.31 -0.22,-0.47 -0.64,-0.47l-3.22 0 0 1.54 3.22 0c0.43,0 0.64,-0.16 0.64,-0.47zm9.64 3.73l-6.3 0 0 -5.8 6.23 0 0 1.03 -4.8 0 0 1.26 2.8 0 0 1 -2.8 0 0 1.43 4.87 0 0 1.08zm9.23 0l-2.03 0 -2.43 -2.19 -1.33 0 0 2.19 -1.4 0 0 -5.8 5.23 0c0.91,0 1.36,0.37 1.36,1.12l0 1.37c0,0.57 -0.24,0.91 -0.73,1.04 -0.16,0.05 -0.64,0.07 -1.43,0.07l2.76 2.19zm-1.92 -3.66l0 -0.67c0,-0.31 -0.22,-0.47 -0.64,-0.47l-3.22 0 0 1.6 3.22 0c0.43,0 0.64,-0.16 0.64,-0.47zm11.59 3.66l-1.32 0 0 -3.99 -2.59 3.29 -0.27 0 -2.62 -3.2 0 3.9 -1.14 0 0 -5.8 1.14 0 2.84 3.44 2.83 -3.44 1.14 0 0 5.8zm10 0l-1.59 0 -0.73 -1.28 -3.84 0 -0.73 1.28 -1.41 0 3.44 -5.8 1.36 0 3.5 5.8zm-2.89 -2.33l-1.36 -2.41 -1.3 2.41 2.66 0zm11.52 2.33l-2.03 0 -2.43 -2.19 -1.33 0 0 2.19 -1.4 0 0 -5.8 5.23 0c0.91,0 1.36,0.37 1.36,1.12l0 1.37c0,0.57 -0.24,0.91 -0.73,1.04 -0.16,0.05 -0.64,0.07 -1.43,0.07l2.76 2.19zm-1.92 -3.66l0 -0.67c0,-0.31 -0.22,-0.47 -0.64,-0.47l-3.22 0 0 1.6 3.22 0c0.43,0 0.64,-0.16 0.64,-0.47zm10.96 3.66l-2.24 0 -3.65 -2.62 0 2.62 -1.43 0 0 -5.8 1.43 0 0 2.35 3.39 -2.35 2.04 0 -4.01 2.69 4.46 3.11zm7.49 0l-6.3 0 0 -5.8 6.23 0 0 1.03 -4.8 0 0 1.26 2.8 0 0 1 -2.8 0 0 1.43 4.87 0 0 1.08zm8.31 -4.76l-2.81 0 0 4.76 -1.41 0 0 -4.76 -2.8 0 0 -1.04 7.02 0 0 1.04z"/>
  <polygon class="fil5" points="184.18,94.38 281.81,94.38 281.81,95.64 184.18,95.64 "/>
 </g>
</svg>
